<?xml version="1.0" encoding="iso-8859-1"?>
<!-- Generator: Adobe Illustrator 19.0.0, SVG Export Plug-In . SVG Version: 6.00 Build 0)  -->
<svg version="1.1" id="Layer_1" xmlns="http://www.w3.org/2000/svg" xmlns:xlink="http://www.w3.org/1999/xlink" x="0px" y="0px"
	 viewBox="0 0 512 512" style="enable-background:new 0 0 512 512;" xml:space="preserve">
<ellipse style="fill:#BA7400;" cx="255.72" cy="257.33" rx="255.24" ry="159.27"/>
<path style="fill:#804D00;" d="M510.955,257.334c0,87.964-114.274,159.272-255.238,159.272c0-124.957,0-244.999,0-318.545
	C396.681,98.062,510.955,169.37,510.955,257.334z"/>
<path style="fill:#FBDA35;" d="M359.504,120.899c5.417-16.673,20.886-27.263,37.518-27.261c5.137-15.819,19.989-27.258,37.52-27.258
	s32.383,11.439,37.52,27.258c16.632-0.002,32.101,10.588,37.518,27.261c5.417,16.673-0.872,34.333-14.329,44.107
	c5.142,15.817-0.15,33.801-14.333,44.106c-14.183,10.305-32.923,9.78-46.376,0.002c-13.454,9.778-32.193,10.303-46.376-0.002
	c-14.183-10.304-19.475-28.289-14.333-44.106C360.377,155.232,354.087,137.572,359.504,120.899z"/>
<path style="fill:#F7BA35;" d="M509.581,120.899c-5.417-16.673-20.886-27.263-37.518-27.261
	c-5.137-15.819-19.989-27.258-37.52-27.258c0,23.001,0,115.166,0,142.734c13.454,9.778,32.193,10.303,46.376-0.002
	c14.183-10.304,19.475-28.289,14.333-44.106C508.709,155.232,514.999,137.572,509.581,120.899z"/>
<circle style="fill:#FFFFFF;" cx="434.54" cy="143.34" r="19.512"/>
<path style="fill:#EBEBEC;" d="M454.054,143.343c0,10.776-8.736,19.512-19.512,19.512c0-15.065,0-21.342,0-39.023
	C445.319,123.831,454.054,132.567,454.054,143.343z"/>
<path style="fill:#A9F0F0;" d="M164.223,75.861c5.417-16.673,20.886-27.263,37.518-27.261c5.137-15.819,19.989-27.258,37.52-27.258
	s32.383,11.439,37.52,27.258c16.632-0.002,32.101,10.588,37.518,27.261s-0.872,34.333-14.329,44.107
	c5.142,15.817-0.15,33.801-14.333,44.106c-14.183,10.305-32.923,9.78-46.376,0.002c-13.454,9.778-32.193,10.303-46.376-0.002
	c-14.183-10.304-19.475-28.289-14.333-44.106C165.095,110.194,158.805,92.534,164.223,75.861z"/>
<path style="fill:#64DDE0;" d="M314.299,75.861c-5.417-16.673-20.886-27.263-37.518-27.261
	c-5.137-15.819-19.989-27.258-37.52-27.258c0,23.001,0,115.166,0,142.734c13.454,9.778,32.193,10.303,46.376-0.002
	c14.183-10.304,19.475-28.289,14.333-44.106C313.427,110.194,319.717,92.534,314.299,75.861z"/>
<circle style="fill:#FF7F4B;" cx="239.26" cy="98.31" r="19.512"/>
<path style="fill:#FD5219;" d="M258.773,98.305c0,10.776-8.736,19.512-19.512,19.512c0-15.065,0-21.342,0-39.023
	C250.037,78.793,258.773,87.529,258.773,98.305z"/>
<path style="fill:#FF7F4B;" d="M267.972,54.519c5.417-16.673,20.886-27.263,37.518-27.261C310.628,11.439,325.48,0,343.011,0
	s32.383,11.439,37.52,27.258c16.632-0.002,32.101,10.588,37.518,27.261s-0.872,34.333-14.329,44.107
	c5.142,15.817-0.15,33.801-14.333,44.106c-14.183,10.305-32.923,9.78-46.376,0.002c-13.454,9.778-32.193,10.303-46.376-0.002
	c-14.183-10.304-19.475-28.289-14.333-44.106C268.845,88.852,262.555,71.192,267.972,54.519z"/>
<path style="fill:#FD5219;" d="M418.049,54.519c-5.417-16.673-20.886-27.263-37.518-27.261C375.394,11.439,360.542,0,343.011,0
	c0,23.001,0,115.166,0,142.734c13.454,9.778,32.193,10.303,46.376-0.002c14.183-10.304,19.475-28.289,14.333-44.106
	C417.177,88.852,423.467,71.192,418.049,54.519z"/>
<circle style="fill:#FBDA35;" cx="343.01" cy="76.963" r="19.512"/>
<path style="fill:#F7BA35;" d="M362.522,76.963c0,10.776-8.736,19.512-19.512,19.512c0-15.065,0-21.342,0-39.023
	C353.787,57.451,362.522,66.187,362.522,76.963z"/>
<path style="fill:#A9F0F0;" d="M196.83,396.711c5.417-16.673,20.886-27.263,37.518-27.261c5.137-15.819,19.989-27.258,37.52-27.258
	s32.383,11.439,37.52,27.258c16.632-0.002,32.101,10.588,37.518,27.261s-0.872,34.333-14.329,44.107
	c5.142,15.817-0.15,33.801-14.333,44.106s-32.923,9.78-46.376,0.002c-13.454,9.778-32.193,10.303-46.376-0.002
	c-14.183-10.305-19.475-28.289-14.333-44.106C197.702,431.044,191.412,413.384,196.83,396.711z"/>
<path style="fill:#64DDE0;" d="M346.907,396.711c-5.417-16.673-20.886-27.263-37.518-27.261
	c-5.137-15.819-19.989-27.258-37.52-27.258c0,23.001,0,115.166,0,142.734c13.454,9.778,32.193,10.303,46.376-0.002
	c14.183-10.305,19.475-28.289,14.333-44.106C346.034,431.044,352.324,413.384,346.907,396.711z"/>
<circle style="fill:#FBDA35;" cx="271.87" cy="419.15" r="19.512"/>
<path style="fill:#F7BA35;" d="M291.38,419.155c0,10.776-8.736,19.512-19.512,19.512c0-15.065,0-21.342,0-39.023
	C282.644,399.643,291.38,408.379,291.38,419.155z"/>
<path style="fill:#FBDA35;" d="M2.419,351.673C7.836,335,23.305,324.409,39.937,324.412c5.137-15.819,19.989-27.258,37.52-27.258
	s32.383,11.439,37.52,27.258c16.632-0.002,32.101,10.588,37.518,27.261c5.417,16.673-0.872,34.333-14.329,44.107
	c5.142,15.817-0.15,33.801-14.333,44.106c-14.183,10.305-32.923,9.78-46.376,0.002c-13.454,9.778-32.193,10.303-46.376-0.002
	c-14.183-10.305-19.475-28.289-14.333-44.106C3.291,386.006-2.999,368.346,2.419,351.673z"/>
<path style="fill:#F7BA35;" d="M152.496,351.673c-5.417-16.673-20.886-27.263-37.518-27.261
	c-5.137-15.819-19.989-27.258-37.52-27.258c0,23.001,0,115.166,0,142.734c13.454,9.778,32.193,10.303,46.376-0.002
	c14.183-10.305,19.475-28.289,14.333-44.106C151.623,386.006,157.913,368.346,152.496,351.673z"/>
<circle style="fill:#FFFFFF;" cx="77.46" cy="374.12" r="19.512"/>
<path style="fill:#EBEBEC;" d="M96.969,374.117c0,10.776-8.736,19.512-19.512,19.512c0-15.065,0-21.342,0-39.023
	C88.233,354.605,96.969,363.341,96.969,374.117z"/>
<path style="fill:#FF7F4B;" d="M93.384,416.254c5.417-16.673,20.886-27.263,37.518-27.261c5.137-15.819,19.989-27.258,37.52-27.258
	s32.383,11.439,37.52,27.258c16.632-0.002,32.101,10.588,37.518,27.261c5.417,16.673-0.872,34.333-14.329,44.107
	c5.142,15.817-0.15,33.801-14.333,44.106s-32.923,9.78-46.376,0.002c-13.454,9.778-32.193,10.303-46.376-0.002
	c-14.183-10.305-19.475-28.289-14.333-44.106C94.257,450.587,87.967,432.927,93.384,416.254z"/>
<path style="fill:#FD5219;" d="M243.461,416.254c-5.417-16.673-20.886-27.263-37.518-27.261
	c-5.137-15.819-19.989-27.258-37.52-27.258c0,23.001,0,115.166,0,142.734c13.454,9.778,32.193,10.303,46.376-0.002
	c14.183-10.305,19.475-28.289,14.333-44.106C242.589,450.587,248.879,432.927,243.461,416.254z"/>
<circle style="fill:#FBDA35;" cx="168.42" cy="438.7" r="19.512"/>
<path style="fill:#F7BA35;" d="M187.934,438.698c0,10.776-8.736,19.512-19.512,19.512c0-15.065,0-21.342,0-39.023
	C179.199,419.186,187.934,427.922,187.934,438.698z"/>
<g>
	<path style="fill:#FFFFFF;" d="M90.83,290.306l25.68-68.805h15.313l25.583,68.805h-19.962l-4.167-13.47h-18.316l-4.071,13.47H90.83
		z M124.168,241.173l-6.396,23.065h12.5L124.168,241.173z"/>
	<path style="fill:#FFFFFF;" d="M162.538,290.306V221.5h18.897v52.33h31.205v16.475L162.538,290.306L162.538,290.306z"/>
	<path style="fill:#FFFFFF;" d="M214.476,255.806c0-18.219,13.954-34.694,33.24-34.694c19.768,0,32.754,17.541,32.754,35.081
		c0,18.025-13.762,34.694-33.142,34.694C227.656,290.887,214.476,273.541,214.476,255.806z M247.522,274.122
		c9.593,0,13.76-9.303,13.76-18.316c0-9.303-4.555-17.929-13.858-17.929c-9.497,0-13.76,9.109-13.76,18.122
		C233.664,265.207,238.121,274.122,247.522,274.122z"/>
	<path style="fill:#FFFFFF;" d="M349.463,221.5v68.805h-18.897v-26.94h-23.065v26.94h-18.897V221.5h18.897v25.39h23.065V221.5
		H349.463z"/>
	<path style="fill:#FFFFFF;" d="M354.594,290.306l25.68-68.805h15.313l25.583,68.805h-19.962l-4.167-13.47h-18.316l-4.071,13.47
		H354.594z M387.931,241.173l-6.396,23.065h12.5L387.931,241.173z"/>
</g>
<g>
</g>
<g>
</g>
<g>
</g>
<g>
</g>
<g>
</g>
<g>
</g>
<g>
</g>
<g>
</g>
<g>
</g>
<g>
</g>
<g>
</g>
<g>
</g>
<g>
</g>
<g>
</g>
<g>
</g>
</svg>
